<svg width="34" height="33" viewBox="0 0 34 33" fill="none" xmlns="http://www.w3.org/2000/svg">
<path d="M18.5469 13.9306C18.5469 16.5087 17 20.1181 17 20.1181L18.5469 13.9306ZM17.5156 14.9619C17.5156 14.9619 19.0625 10.8369 15.4531 7.74312C11.8438 4.64937 6.17188 5.68063 6.17188 5.68063C6.17188 5.68063 6.17188 9.80562 9.26563 12.8994C12.3594 15.9931 17.5156 14.9619 17.5156 14.9619ZM18.5469 12.8994C18.5469 12.8994 17 8.77438 20.6094 5.68063C24.2188 2.58688 29.8906 3.61812 29.8906 3.61812C29.8906 3.61812 29.8906 7.74312 26.7969 10.8369C23.7031 13.9306 18.5469 12.8994 18.5469 12.8994ZM10.2969 20.1181H23.7031C23.7031 20.1181 24.7344 29.3994 17 29.3994C9.26563 29.3994 10.2969 20.1181 10.2969 20.1181Z" stroke="white" stroke-opacity="0.8" stroke-width="1.94118" stroke-linecap="round" stroke-linejoin="round"/>
</svg>
