<svg width="32" height="32" viewBox="0 0 32 32" fill="none" xmlns="http://www.w3.org/2000/svg">
<path d="M20.9707 3.38698L21.3707 3.92032L21.7707 3.38698C22.2533 2.74355 23.0635 2.31201 23.9207 2.31201C25.4295 2.31201 26.6081 3.49062 26.6081 4.99944V19.0241C26.6081 24.7404 21.9871 29.3614 16.2709 29.3614C10.5546 29.3614 5.93359 24.7404 5.93359 19.0241V4.99944C5.93359 3.49062 7.11221 2.31201 8.62102 2.31201C9.47826 2.31201 10.2884 2.74355 10.771 3.38698L11.171 3.92032L11.571 3.38698C12.0535 2.74355 12.8637 2.31201 13.7209 2.31201C14.5781 2.31201 15.3883 2.74355 15.8709 3.38698L16.2709 3.92032L16.6709 3.38698C17.1534 2.74355 17.9636 2.31201 18.8208 2.31201C19.678 2.31201 20.4882 2.74355 20.9707 3.38698ZM25.5331 10.4993L26.3331 11.0993V10.0993V4.99944C26.3331 3.63957 25.2806 2.58698 23.9207 2.58698C22.5608 2.58698 21.5082 3.63957 21.5082 4.99944V9.46185V9.96185H22.0082H23.9207C24.5087 9.96185 25.1056 10.1786 25.5331 10.4993ZM20.7333 9.96185H21.2333V9.46185V4.99944C21.2333 3.63957 20.1807 2.58698 18.8208 2.58698C17.4609 2.58698 16.4083 3.63957 16.4083 4.99944V9.46185V9.96185H16.9083H20.7333ZM15.6334 9.96185H16.1334V9.46185V4.99944C16.1334 3.63957 15.0808 2.58698 13.7209 2.58698C12.361 2.58698 11.3085 3.63957 11.3085 4.99944V11.3743C11.3085 12.6704 12.2851 13.6252 13.4636 13.7824L14.4501 13.9139L13.9667 13.0439C13.6994 12.5627 13.5834 12.0141 13.5834 11.3743C13.5834 10.5667 14.1883 9.96185 14.9959 9.96185H15.6334ZM7.00857 13.5242L6.20857 12.9242V13.9242V19.0241C6.20857 24.5914 10.7036 29.0864 16.2709 29.0864C21.8381 29.0864 26.3331 24.5914 26.3331 19.0241V12.6493C26.3331 11.2894 25.2806 10.2368 23.9207 10.2368H14.9959C14.691 10.2368 14.3981 10.3406 14.1802 10.5586C13.9622 10.7765 13.8584 11.0694 13.8584 11.3743C13.8584 13.4354 15.4847 15.0617 17.5458 15.0617H21.3707C21.4484 15.0617 21.4742 15.0854 21.4794 15.0906C21.4845 15.0958 21.5082 15.1216 21.5082 15.1992C21.5082 15.2768 21.4845 15.3027 21.4794 15.3078C21.4742 15.313 21.4484 15.3367 21.3707 15.3367C17.9072 15.3367 15.1334 18.1105 15.1334 21.5741V22.8491C15.1334 22.9267 15.1097 22.9525 15.1045 22.9577C15.0993 22.9629 15.0735 22.9865 14.9959 22.9865C14.9183 22.9865 14.8924 22.9629 14.8873 22.9577C14.8821 22.9525 14.8584 22.9267 14.8584 22.8491V21.5741C14.8584 19.3895 15.981 17.4323 17.6452 16.2436L18.8032 15.4164L17.3823 15.3375C16.3612 15.2807 15.3925 14.825 14.712 14.1444L14.4934 13.9259L14.2003 14.0236C14.1015 14.0566 13.9355 14.0617 13.7209 14.0617C12.8637 14.0617 12.0535 13.6302 11.571 12.9868L11.171 12.4534L10.771 12.9868C10.2884 13.6302 9.47826 14.0617 8.62102 14.0617C8.03305 14.0617 7.43616 13.8449 7.00857 13.5242ZM8.62102 2.58698C7.26116 2.58698 6.20857 3.63957 6.20857 4.99944V11.3743C6.20857 12.7342 7.26116 13.7868 8.62102 13.7868C9.98089 13.7868 11.0335 12.7342 11.0335 11.3743V4.99944C11.0335 3.63957 9.98089 2.58698 8.62102 2.58698Z" fill="white" stroke="white"/>
</svg>
