<svg width="33" height="33" viewBox="0 0 33 33" fill="none" xmlns="http://www.w3.org/2000/svg">
<path d="M31.4922 10.0116C31.2015 8.55884 30.3286 7.46852 29.0333 6.975C28.1114 6.62374 27.0362 6.61149 26.102 6.88842C26.1254 5.53124 25.9325 4.30254 25.2003 4.07545C24.2313 3.77423 18.9891 3.66553 15.7023 3.66553C7.82411 3.66553 7.39291 4.09972 7.07886 4.41617C6.73188 4.76335 6.58536 5.66032 6.60642 6.81747C5.73692 6.61681 4.7736 6.66557 3.93743 6.98397C2.64383 7.47703 1.77032 8.55878 1.47981 10.0116C1.02456 12.2861 2.42279 14.4268 4.00981 15.5941C5.65145 16.7991 7.53306 17.3442 10.3007 17.3442H10.3166C10.3402 17.3442 10.3624 17.3753 10.3856 17.374C11.3745 18.424 12.5261 19.1551 13.8183 19.5605C13.8166 19.608 13.8156 19.6724 13.8211 19.7203C14.0012 21.1845 13.304 22.7374 12.0863 23.5703C12.0523 23.5933 12.0244 23.6258 11.995 23.6522C10.8604 23.754 10.6913 23.9051 10.5456 24.0359C10.0815 24.4512 8.10135 29.1706 8.89731 30.3191C9.15792 30.6942 9.45374 31.1213 16.1749 31.1213C22.6781 31.1213 23.0934 30.6702 23.3684 30.37C24.5459 29.0848 22.4924 24.5967 22.1182 24.182C21.9545 23.9991 21.7736 23.803 20.4465 23.6767C20.4007 23.6255 20.3494 23.5813 20.2901 23.5396C19.1707 22.7595 18.2695 21.2926 18.6759 19.6977C20.2578 19.2818 21.4996 18.3967 22.4742 17.3626C22.5324 17.3738 22.5926 17.3443 22.6536 17.3443H22.6695C25.4384 17.3443 27.3196 16.7995 28.9604 15.5942C30.5483 14.427 31.946 12.2863 31.4913 10.0117L31.4922 10.0116ZM16.1549 25.3478C18.796 25.3478 20.328 25.4548 20.8645 25.542C21.2222 26.2209 21.8809 28.2136 21.9385 29.0573C21.2071 29.175 19.3354 29.3108 16.1761 29.3108C13.3699 29.3108 11.4171 29.2032 10.537 29.0996C10.7164 28.1498 11.3594 26.2183 11.7176 25.5025C12.3041 25.4293 13.8357 25.3478 16.155 25.3478L16.1549 25.3478ZM17.7852 23.5691C17.3 23.5614 16.7617 23.5455 16.1547 23.5455C15.5793 23.5455 15.0689 23.5566 14.6093 23.5633C15.3224 22.5097 15.7076 21.2533 15.6528 19.9855C15.8438 19.9997 16.0363 20.0519 16.2327 20.0519H16.3343C16.4907 20.0519 16.6409 20.0048 16.7913 19.9984C16.6497 21.3448 17.077 22.5727 17.7851 23.5691L17.7852 23.5691ZM8.02816 13.6042C8.31411 14.3035 8.6364 14.9429 8.98703 15.5301C7.33593 15.3696 6.14463 14.9517 5.08225 14.1714C3.99341 13.3713 2.95765 11.8344 3.2546 10.3489C3.42389 9.5044 3.87098 8.93828 4.58296 8.66647C5.33426 8.38116 6.22179 8.49546 6.77047 8.78249C6.99241 10.3777 7.42706 12.1377 8.02816 13.6042V13.6042ZM21.8524 15.3125C20.4914 17.2042 18.636 18.163 16.3348 18.1637L16.2508 18.163C14.0861 18.1417 12.3 17.153 10.9418 15.2231C8.6101 11.9089 8.29902 7.06769 8.44576 5.76199C9.18028 5.63846 11.2811 5.47453 15.703 5.47453C19.5335 5.47453 22.9889 5.60236 24.239 5.73815C24.4042 7.22639 24.164 12.0961 21.8529 15.3125L21.8524 15.3125ZM27.8892 14.1714C26.7991 14.9719 25.5751 15.3913 23.8585 15.5413C25.1003 13.4313 25.6304 11.0536 25.8521 9.5886C25.8828 9.38729 25.9133 9.16923 25.9414 8.94345C25.9578 8.934 25.9732 8.92691 25.9889 8.91574C26.4942 8.53503 27.5302 8.33802 28.39 8.66587C29.1022 8.93765 29.5488 9.50396 29.7188 10.3483C30.0146 11.8342 28.978 13.3714 27.8892 14.1713L27.8892 14.1714Z" fill="white" fill-opacity="0.8"/>
<path d="M20.4235 13.605C20.2235 13.605 20.0228 13.5393 19.8563 13.4046C19.4674 13.0909 19.4062 12.5209 19.7203 12.132C20.6255 11.0108 21.0721 9.63966 21.1293 7.81905C21.1451 7.31911 21.5594 6.92486 22.0614 6.94246C22.5616 6.95793 22.9543 7.37559 22.938 7.87488C22.8704 10.0796 22.2785 11.8443 21.1293 13.2689C20.9494 13.4898 20.6875 13.605 20.4235 13.605L20.4235 13.605Z" fill="white" fill-opacity="0.8"/>
</svg>
